# xmcd
#
# Track frame offsets:
# 150
# 14019
# 34222
# 45039
# 56079
# 69916
# 87991
# 99860
# 118170
# 131514
# 142740
# 157485
# 169930
# 180134
# 195659
#
# Disc length: 2816 seconds
#
#
# Revision: 0
# Processed by: cddbd v1.5.1PL2 Copyright (c) Steve Scherf et al.
# Submitted via: FreeRIP 2.944 
#
DISCID=c30afe0f
DTITLE=30 RECUERDOS
DYEAR=1900
DGENRE=Latin
TTITLE0=TRISTE ESTOY
TTITLE1=EL GATO NEGRO
TTITLE2=TRES AMORES
TTITLE3=PUEBLITO
TTITLE4=LA CLAVE DEL JEFE
TTITLE5=EL HOMBRE QUE MAS TE AMO
TTITLE6=NO TE APASIONES
TTITLE7=TRAICIONARON A MATEO
TTITLE8=EL BURRO PARDO
TTITLE9=DOS CORONAS A MI MADRE
TTITLE10=EL REFLEJO DE MI PADRE
TTITLE11=EL PARRANDERO
TTITLE12=EL ULTIMO RODEO
TTITLE13=EL GUERO PALMA
TTITLE14=CUATRO MESES
EXTD=
EXTT0=
EXTT1=
EXTT2=
EXTT3=
EXTT4=
EXTT5=
EXTT6=
EXTT7=
EXTT8=
EXTT9=
EXTT10=
EXTT11=
EXTT12=
EXTT13=
EXTT14=
PLAYORDER=
